<svg width="25" height="25" viewBox="0 0 25 25" fill="none" xmlns="http://www.w3.org/2000/svg">
<g clip-path="url(#clip0_158_24)">
<path d="M12.5 0C10.0277 0 7.61099 0.733112 5.55538 2.10663C3.49976 3.48015 1.89761 5.43238 0.951511 7.71646C0.00541608 10.0005 -0.242126 12.5139 0.24019 14.9386C0.722505 17.3634 1.91301 19.5907 3.66117 21.3388C5.40933 23.087 7.63661 24.2775 10.0614 24.7598C12.4861 25.2421 14.9995 24.9946 17.2835 24.0485C19.5676 23.1024 21.5199 21.5002 22.8934 19.4446C24.2669 17.389 25 14.9723 25 12.5C24.9964 9.18589 23.6783 6.00855 21.3349 3.66512C18.9915 1.3217 15.8141 0.00358446 12.5 0V0ZM22.9167 12.5C22.9179 14.5414 22.3156 16.5375 21.1854 18.2375L19.9438 16.9948C19.8464 16.8972 19.7917 16.7649 19.7917 16.6271V15.625C19.7917 14.7962 19.4624 14.0013 18.8764 13.4153C18.2903 12.8292 17.4955 12.5 16.6667 12.5H13.5417C13.2654 12.5 13.0005 12.3903 12.8051 12.1949C12.6098 11.9996 12.5 11.7346 12.5 11.4583V10.9375C12.5 10.7994 12.5549 10.6669 12.6526 10.5692C12.7502 10.4715 12.8827 10.4167 13.0208 10.4167C13.7115 10.4167 14.3739 10.1423 14.8623 9.65392C15.3506 9.16555 15.625 8.50317 15.625 7.8125V6.77083C15.625 6.6327 15.6799 6.50022 15.7776 6.40255C15.8752 6.30487 16.0077 6.25 16.1458 6.25H17.5823C18.2723 6.24804 18.9337 5.97405 19.4229 5.4875L19.8156 5.09479C20.7981 6.06154 21.5783 7.21421 22.1107 8.48559C22.6431 9.75698 22.9171 11.1216 22.9167 12.5ZM2.13438 13.5031L5.42396 16.7927C5.71345 17.0841 6.0579 17.315 6.43735 17.4722C6.81679 17.6294 7.22367 17.7096 7.63438 17.7083H10.4167C10.6929 17.7083 10.9579 17.8181 11.1532 18.0134C11.3486 18.2088 11.4583 18.4737 11.4583 18.75V22.8635C9.06271 22.619 6.82542 21.5533 5.12597 19.8472C3.42653 18.1411 2.36957 15.8997 2.13438 13.5031ZM13.5417 22.8635V18.75C13.5417 17.9212 13.2124 17.1263 12.6264 16.5403C12.0403 15.9542 11.2455 15.625 10.4167 15.625H7.63438C7.49742 15.6251 7.36179 15.5982 7.23524 15.5458C7.10869 15.4935 6.99371 15.4166 6.89688 15.3198L2.25313 10.676C2.55123 8.98146 3.26536 7.38739 4.33144 6.03685C5.39752 4.68632 6.7822 3.62157 8.36125 2.93814C9.9403 2.25471 11.6643 1.97397 13.3786 2.12113C15.0929 2.26828 16.7439 2.83871 18.1833 3.78125L17.95 4.01458C17.852 4.11128 17.72 4.16585 17.5823 4.16667H16.1458C15.4552 4.16667 14.7928 4.44103 14.3044 4.92941C13.816 5.41779 13.5417 6.08017 13.5417 6.77083V7.8125C13.5417 7.95063 13.4868 8.08311 13.3891 8.18078C13.2914 8.27846 13.159 8.33333 13.0208 8.33333C12.3302 8.33333 11.6678 8.6077 11.1794 9.09608C10.691 9.58445 10.4167 10.2468 10.4167 10.9375V11.4583C10.4167 12.2871 10.7459 13.082 11.332 13.668C11.918 14.2541 12.7129 14.5833 13.5417 14.5833H16.6667C16.9429 14.5833 17.2079 14.6931 17.4032 14.8884C17.5986 15.0838 17.7083 15.3487 17.7083 15.625V16.6271C17.7103 17.3171 17.9843 17.9785 18.4708 18.4677L19.8635 19.8604C18.1671 21.5627 15.9329 22.624 13.5417 22.8635Z" fill="#fff"/>
</g>
<defs>
<clipPath id="clip0_158_24">
<rect width="25" height="25" fill="white"/>
</clipPath>
</defs>
</svg>
