<svg width="25" height="25" viewBox="0 0 25 25" fill="none" xmlns="http://www.w3.org/2000/svg">
<g clip-path="url(#clip0_158_19)">
<path d="M24.8291 9.16039C24.6161 8.48216 24.1904 7.8905 23.615 7.47292C23.0397 7.05534 22.3452 6.834 21.6343 6.84164H17.0833L15.701 2.53331C15.4836 1.85514 15.0565 1.26353 14.4812 0.843791C13.9059 0.424053 13.2121 0.197876 12.5 0.197876C11.7878 0.197876 11.0941 0.424053 10.5187 0.843791C9.94343 1.26353 9.51629 1.85514 9.29892 2.53331L7.91663 6.84164H3.36558C2.65698 6.84265 1.96682 7.06756 1.39369 7.48425C0.820549 7.90094 0.393749 8.48809 0.17425 9.16183C-0.0452494 9.83558 -0.0462209 10.5615 0.171474 11.2358C0.389169 11.9101 0.814395 12.4984 1.38642 12.9166L5.09058 15.625L3.68225 19.9864C3.45466 20.6629 3.45177 21.3948 3.67403 22.073C3.89629 22.7512 4.33178 23.3394 4.91558 23.75C5.48939 24.1737 6.18474 24.4007 6.89804 24.3971C7.61133 24.3936 8.30438 24.1596 8.87392 23.7302L12.5 21.0614L16.127 23.7271C16.6998 24.1484 17.3914 24.3772 18.1024 24.3807C18.8134 24.3841 19.5073 24.162 20.0841 23.7463C20.6609 23.3306 21.0911 22.7427 21.3128 22.0671C21.5344 21.3915 21.5361 20.6631 21.3177 19.9864L19.9093 15.625L23.6177 12.9166C24.1962 12.5037 24.6264 11.9154 24.8446 11.2389C25.0628 10.5624 25.0574 9.83357 24.8291 9.16039ZM22.3885 11.2343L18.0718 14.3896C17.8945 14.5189 17.7626 14.7009 17.6949 14.9097C17.6272 15.1185 17.6271 15.3433 17.6948 15.5521L19.3354 20.625C19.4184 20.8823 19.4177 21.1593 19.3334 21.4161C19.249 21.673 19.0854 21.8965 18.866 22.0545C18.6467 22.2125 18.3828 22.2969 18.1125 22.2955C17.8421 22.2942 17.5792 22.2071 17.3614 22.0468L13.1166 18.9218C12.9378 18.7905 12.7218 18.7197 12.5 18.7197C12.2781 18.7197 12.0621 18.7905 11.8833 18.9218L7.6385 22.0468C7.42088 22.2093 7.15719 22.2981 6.88565 22.3006C6.61412 22.3031 6.34886 22.219 6.12832 22.0605C5.90779 21.9021 5.74345 21.6776 5.65912 21.4194C5.5748 21.1613 5.57487 20.883 5.65933 20.625L7.30517 15.5521C7.37279 15.3433 7.37274 15.1185 7.30502 14.9097C7.23731 14.7009 7.10539 14.5189 6.92808 14.3896L2.61142 11.2343C2.39402 11.0752 2.23249 10.8514 2.1499 10.5949C2.0673 10.3385 2.06786 10.0624 2.1515 9.80632C2.23515 9.5502 2.39759 9.32706 2.61563 9.16878C2.83367 9.01049 3.09615 8.92516 3.36558 8.92497H8.67809C8.89862 8.92496 9.11347 8.85496 9.29168 8.72505C9.46989 8.59514 9.60227 8.41201 9.66975 8.20205L11.2843 3.16976C11.3672 2.91225 11.5297 2.68767 11.7483 2.52836C11.9669 2.36904 12.2305 2.28321 12.501 2.28321C12.7715 2.28321 13.0351 2.36904 13.2537 2.52836C13.4723 2.68767 13.6348 2.91225 13.7177 3.16976L15.3323 8.20205C15.3997 8.41201 15.5321 8.59514 15.7103 8.72505C15.8885 8.85496 16.1034 8.92496 16.3239 8.92497H21.6364C21.9059 8.92516 22.1683 9.01049 22.3864 9.16878C22.6044 9.32706 22.7669 9.5502 22.8505 9.80632C22.9341 10.0624 22.9347 10.3385 22.8521 10.5949C22.7695 10.8514 22.608 11.0752 22.3906 11.2343H22.3885Z" fill="#fff"/>
</g>
<defs>
<clipPath id="clip0_158_19">
<rect width="25" height="25" fill="white"/>
</clipPath>
</defs>
</svg>
