<svg width="24" height="25" viewBox="0 0 24 25" fill="none" xmlns="http://www.w3.org/2000/svg">
<g clip-path="url(#clip0_158_21)">
<path d="M18.581 2.22917L12.316 0.0531317C12.1109 -0.0180361 11.8891 -0.0180361 11.684 0.0531317L5.419 2.22917C4.42291 2.57384 3.55642 3.23673 2.94265 4.12366C2.32887 5.01059 1.99904 6.07645 2 7.1698V12.5C2 20.3781 11.2 24.7292 11.594 24.9104C11.7218 24.9696 11.8601 25.0001 12 25.0001C12.1399 25.0001 12.2782 24.9696 12.406 24.9104C12.8 24.7292 22 20.3781 22 12.5V7.1698C22.001 6.07645 21.6711 5.01059 21.0574 4.12366C20.4436 3.23673 19.5771 2.57384 18.581 2.22917ZM20 12.5C20 18.1823 13.681 21.9094 12 22.801C10.317 21.9125 4 18.1969 4 12.5V7.1698C4.00006 6.51383 4.19828 5.87452 4.56657 5.34244C4.93486 4.81037 5.45455 4.4125 6.052 4.20521L12 2.13959L17.948 4.20521C18.5455 4.4125 19.0651 4.81037 19.4334 5.34244C19.8017 5.87452 19.9999 6.51383 20 7.1698V12.5Z" fill="#fff"/>
<path d="M15.3 8.64585L11.112 13.0209L8.86804 10.5834C8.77798 10.4808 8.66913 10.398 8.5479 10.34C8.42666 10.2819 8.2955 10.2497 8.16213 10.2452C8.02877 10.2408 7.89589 10.2642 7.77134 10.3141C7.64679 10.3639 7.53308 10.4393 7.43691 10.5356C7.34074 10.632 7.26405 10.7474 7.21137 10.8751C7.15869 11.0028 7.13107 11.1402 7.13015 11.2792C7.12923 11.4182 7.15502 11.556 7.20601 11.6844C7.257 11.8129 7.33215 11.9294 7.42704 12.0271L9.73304 14.5271C9.90501 14.7206 10.1129 14.8757 10.3441 14.9832C10.5752 15.0906 10.8249 15.1481 11.078 15.1521H11.111C11.3591 15.153 11.6048 15.1025 11.834 15.0036C12.0632 14.9047 12.2712 14.7594 12.446 14.5761L16.718 10.1261C16.8113 10.0291 16.8854 9.91389 16.936 9.78709C16.9865 9.6603 17.0126 9.52436 17.0128 9.38706C17.0129 9.24975 16.9871 9.11377 16.9368 8.98686C16.8865 8.85995 16.8126 8.74461 16.7195 8.64741C16.6264 8.55022 16.5159 8.47308 16.3941 8.4204C16.2724 8.36773 16.1419 8.34054 16.0101 8.34039C15.8783 8.34025 15.7477 8.36715 15.6259 8.41956C15.5041 8.47197 15.3933 8.54886 15.3 8.64585Z" fill="#fff"/>
</g>
<defs>
<clipPath id="clip0_158_21">
<rect width="24" height="25" fill="white"/>
</clipPath>
</defs>
</svg>
