<svg width="25" height="25" viewBox="0 0 25 25" fill="none" xmlns="http://www.w3.org/2000/svg">
<g clip-path="url(#clip0_158_17)">
<path d="M19.7917 5.20835H17.6042C17.3624 4.03274 16.7227 2.97642 15.793 2.21744C14.8632 1.45845 13.7002 1.0432 12.5 1.04169H5.20833C3.8275 1.04334 2.50371 1.59261 1.52731 2.569C0.550919 3.54539 0.00165402 4.86919 0 6.25002L0 15.625C0.00261855 16.558 0.318268 17.4631 0.896392 18.1953C1.47451 18.9275 2.28166 19.4446 3.18854 19.6636C3.09038 20.1849 3.10715 20.7213 3.2377 21.2355C3.36824 21.7496 3.60941 22.2291 3.94437 22.6404C4.27933 23.0517 4.70002 23.385 5.17707 23.617C5.65412 23.849 6.17605 23.974 6.70642 23.9835C7.2368 23.9929 7.76285 23.8865 8.24787 23.6717C8.73289 23.4569 9.16518 23.1388 9.51459 22.7397C9.864 22.3406 10.1221 21.87 10.2709 21.3608C10.4197 20.8517 10.4556 20.3162 10.376 19.7917H14.6281C14.6013 19.964 14.587 20.1381 14.5854 20.3125C14.5854 21.2795 14.9695 22.2068 15.6533 22.8905C16.337 23.5742 17.2643 23.9584 18.2312 23.9584C19.1982 23.9584 20.1255 23.5742 20.8092 22.8905C21.493 22.2068 21.8771 21.2795 21.8771 20.3125C21.8759 20.0947 21.8546 19.8775 21.8135 19.6636C22.72 19.4442 23.5267 18.927 24.1044 18.1948C24.6821 17.4626 24.9975 16.5577 25 15.625V10.4167C24.9983 9.03586 24.4491 7.71206 23.4727 6.73567C22.4963 5.75927 21.1725 5.21001 19.7917 5.20835ZM22.9167 10.4167V11.4584H17.7083V7.29169H19.7917C20.6205 7.29169 21.4153 7.62093 22.0014 8.20698C22.5874 8.79303 22.9167 9.58789 22.9167 10.4167ZM2.08333 15.625V6.25002C2.08333 5.42122 2.41257 4.62636 2.99862 4.04031C3.58468 3.45426 4.37953 3.12502 5.20833 3.12502H12.5C13.3288 3.12502 14.1237 3.45426 14.7097 4.04031C15.2958 4.62636 15.625 5.42122 15.625 6.25002V17.7084H4.16667C3.61413 17.7084 3.08423 17.4889 2.69353 17.0982C2.30283 16.7075 2.08333 16.1776 2.08333 15.625ZM8.33333 20.3125C8.33333 20.7269 8.16871 21.1244 7.87569 21.4174C7.58266 21.7104 7.18523 21.875 6.77083 21.875C6.35643 21.875 5.959 21.7104 5.66598 21.4174C5.37295 21.1244 5.20833 20.7269 5.20833 20.3125C5.20897 20.1345 5.24179 19.958 5.30521 19.7917H8.23646C8.29987 19.958 8.33269 20.1345 8.33333 20.3125ZM18.2292 21.875C17.8148 21.875 17.4173 21.7104 17.1243 21.4174C16.8313 21.1244 16.6667 20.7269 16.6667 20.3125C16.6671 20.1345 16.6999 19.958 16.7635 19.7917H19.6948C19.7584 19.958 19.7912 20.1345 19.7917 20.3125C19.7917 20.7269 19.627 21.1244 19.334 21.4174C19.041 21.7104 18.6436 21.875 18.2292 21.875ZM20.8333 17.7084H17.7083V13.5417H22.9167V15.625C22.9167 16.1776 22.6972 16.7075 22.3065 17.0982C21.9158 17.4889 21.3859 17.7084 20.8333 17.7084Z" fill="#fff"/>
</g>
<defs>
<clipPath id="clip0_158_17">
<rect width="25" height="25" fill="white"/>
</clipPath>
</defs>
</svg>
