<svg width="57" height="54" viewBox="0 0 57 54" fill="none" xmlns="http://www.w3.org/2000/svg">
<path d="M9.7301 52.11C10.2701 51.57 10.6301 51.03 10.9001 50.4C10.9001 50.31 10.9901 50.31 10.9901 50.22C11.2601 49.59 11.3501 48.87 11.3501 48.24C11.3501 48.15 11.3501 48.15 11.3501 48.06V41.13C11.3501 39.6 10.8101 38.34 9.7301 37.17C8.6501 36 7.3001 35.46 5.7701 35.46C4.1501 35.46 2.8001 36 1.7201 37.17C0.640098 38.34 0.100098 39.6 0.100098 41.13V48.15C0.100098 49.77 0.640098 51.03 1.7201 52.2C2.8001 53.28 4.1501 53.82 5.6801 53.82C7.1201 53.82 8.2001 53.28 9.2801 52.47C9.4601 52.29 9.6401 52.29 9.7301 52.11Z" fill="#fff"/>
<path d="M56.7102 48.15V21.24C56.7102 19.71 56.1702 18.45 55.0902 17.28C54.0102 16.2 52.6602 15.57 51.1302 15.57C49.5102 15.57 48.1602 16.11 47.0802 17.28C46.0002 18.45 45.4602 19.71 45.4602 21.24V48.06C45.4602 48.15 45.4602 48.15 45.4602 48.24C45.4602 48.96 45.5502 49.68 45.8202 50.31C45.8202 50.4 45.9102 50.4 45.9102 50.49C46.1802 51.12 46.5402 51.66 47.0802 52.2C48.1602 53.28 49.5102 53.82 51.1302 53.82C51.9402 53.82 52.7502 53.64 53.3802 53.28C54.0102 53.01 54.5502 52.65 55.0002 52.2C56.1702 51.03 56.7102 49.68 56.7102 48.15Z" fill="#fff"/>
<path d="M24.4 52.11C24.49 52.2 24.67 52.29 24.76 52.38C25.75 53.28 27.01 53.73 28.45 53.73C29.98 53.73 31.33 53.19 32.41 52.11C33.49 51.03 34.03 49.68 34.03 48.06V33.12C34.03 31.59 33.49 30.33 32.41 29.16C31.33 28.08 29.98 27.45 28.45 27.45C26.83 27.45 25.48 27.99 24.4 29.16C23.32 30.24 22.78 31.59 22.78 33.12V48.06C22.78 49.68 23.32 51.03 24.4 52.11Z" fill="#fff"/>
<path d="M50.0501 5.31C49.6001 3.78 48.7001 2.61 47.2601 1.89C46.9001 1.71 46.5401 1.53 46.2701 1.35C44.2901 0.45 42.1301 0 39.7901 0C37.7201 0 35.8301 0.36 34.0301 1.08C33.9401 1.17 33.7601 1.17 33.6701 1.26C31.7801 2.07 30.0701 3.15 28.4501 4.41C26.7401 3.06 24.9401 1.98 23.1401 1.17C23.0501 1.17 22.9601 1.17 22.8701 1.08C22.8701 1.08 22.8701 1.08 22.7801 1.08C20.9801 0.36 19.0901 0 17.0201 0C14.6801 0 12.4301 0.45 10.3601 1.44C8.2901 2.43 6.4901 3.6 4.9601 5.22C3.4301 6.75 2.1701 8.64 1.3601 10.71C0.550098 12.6 0.190098 14.49 0.100098 16.47C0.100098 16.56 0.100098 16.65 0.100098 16.83V17.1V25.65C0.100098 27.27 0.640097 28.53 1.7201 29.61C2.6201 30.51 3.7901 31.05 5.0501 31.14C5.3201 31.14 5.5001 31.23 5.7701 31.23C6.0401 31.23 6.2201 31.23 6.4901 31.14C7.5701 30.96 8.5601 30.6 9.3701 29.88C9.5501 29.79 9.6401 29.7 9.8201 29.61C10.3601 29.07 10.7201 28.53 10.9901 27.9C10.9901 27.81 11.0801 27.81 11.0801 27.72C11.2601 27.18 11.3501 26.64 11.4401 26.1C11.4401 25.92 11.4401 25.83 11.4401 25.74C11.4401 25.65 11.4401 25.65 11.4401 25.56V17.01C11.6201 15.66 12.0701 14.58 13.0601 13.59C14.1401 12.51 15.4901 11.97 17.0201 11.97C18.6401 11.97 19.9901 12.51 21.0701 13.59C22.1501 14.67 22.6901 15.57 22.6901 17.19C22.6901 18.9 23.2301 20.25 24.3101 21.42C24.4001 21.51 24.8501 21.78 24.9401 21.87C25.9301 22.68 27.0101 23.13 28.3601 23.13C29.6201 23.13 30.7901 22.68 31.7801 21.87C31.9601 21.78 32.1401 21.6 32.3201 21.42C33.4001 20.25 33.9401 18.9 33.9401 17.19C33.9401 15.57 34.4801 14.67 35.6501 13.59C36.7301 12.51 38.0801 11.97 39.7001 11.97C40.3301 11.97 40.9601 12.06 41.5001 12.24L41.5901 12.33C41.8601 12.51 42.2201 12.6 42.4901 12.69C43.6601 13.05 44.8301 13.05 46.0001 12.69C46.1801 12.6 46.2701 12.51 46.4501 12.51C47.7101 11.97 48.7901 11.07 49.5101 9.72C50.2301 8.28 50.4101 6.84 50.0501 5.31Z" fill="#fff"/>
</svg>
